<svg xmlns="http://www.w3.org/2000/svg" width="471" height="174" fill="none" viewBox="0 0 471 174">
    <mask id="v25g71j1ra" width="471" height="174" x="0" y="0" maskUnits="userSpaceOnUse">
        <path fill="#C4C4C4" d="M0 0H471V174H0z"/>
    </mask>
    <g mask="url(#v25g71j1ra)">
        <g clip-path="url(#clip0)">
            <path fill="#B7BFD1" d="M422.245 82.788l-.194 2.859 2.251 1.775-2.77.706-1 2.689-1.525-2.423-2.868-.113 1.836-2.206-.781-2.755 2.664 1.061 2.387-1.593zM5.908 111.006l-.193 2.86 2.25 1.775-2.769.706-1 2.688-1.525-2.422-2.869-.113 1.836-2.207-.78-2.755L3.52 112.6l2.387-1.594zM236.555 11.793l-.194 2.86 2.252 1.775-2.77.706-1 2.688-1.525-2.422-2.869-.113 1.836-2.207-.78-2.755 2.663 1.062 2.387-1.594z"/>
            <path fill="#809EED" d="M369.372 114.373l-.699 2.844 1.956 2.186-2.918.22-1.478 2.527-1.112-2.708-2.864-.615 2.238-1.898-.298-2.914 2.491 1.542 2.684-1.184zM117.231 54.54l-.699 2.843 1.957 2.186-2.918.22-1.479 2.527-1.112-2.708-2.864-.615 2.239-1.898-.298-2.914 2.49 1.542 2.684-1.184z"/>
            <path fill="#959DAE" d="M330.788 73.602c-.318.55-1.016.737-1.567.42-.55-.318-.737-1.016-.419-1.567.317-.55 1.016-.737 1.566-.42.55.318.733 1.024.42 1.567zM116.001 96.45c.548.317 1.249.13 1.566-.419.317-.548.129-1.25-.419-1.566-.549-.317-1.25-.129-1.567.42-.317.548-.129 1.25.42 1.566zM63.54 145.433c.548.317 1.25.129 1.566-.42.316-.548.129-1.249-.42-1.566-.548-.316-1.25-.128-1.566.42-.317.548-.13 1.249.42 1.566zM325.144 29.36c-.318.55-1.016.738-1.567.42-.55-.317-.737-1.015-.419-1.565.317-.55 1.016-.738 1.566-.42.543.313.738 1.016.42 1.566zM172.093 64.685c-.318.55-1.017.737-1.567.42-.55-.318-.737-1.016-.419-1.566.317-.55 1.016-.737 1.566-.42.55.318.737 1.016.42 1.566zM456.497 23.724c-.317.55-1.016.738-1.566.42-.55-.317-.737-1.016-.42-1.566.318-.55 1.017-.737 1.567-.42.55.318.737 1.016.419 1.566zM236.725 161.618c-.318.55-1.016.737-1.567.42-.55-.318-.737-1.016-.419-1.566.317-.55 1.016-.737 1.566-.42.55.318.738 1.016.42 1.566zM25.367 128.523c-.318.55-1.016.737-1.566.42-.55-.318-.738-1.016-.42-1.566s1.016-.738 1.566-.42c.55.317.738 1.016.42 1.566zM157.185 104.682c.549.317 1.25.129 1.567-.42.316-.548.128-1.249-.42-1.566-.549-.316-1.25-.128-1.567.42-.316.548-.128 1.249.42 1.566zM213.978 2.267c.548.316 1.25.128 1.566-.42.317-.548.129-1.25-.419-1.566-.549-.317-1.25-.129-1.567.42-.316.548-.128 1.25.42 1.566zM43.692 52.525c-.317.55-1.016.737-1.566.42-.55-.318-.737-1.017-.42-1.567.318-.55 1.016-.737 1.567-.42.55.318.737 1.016.42 1.567zM283.582 57.772c.45.44.458 1.169.017 1.62-.441.45-1.17.457-1.62.016-.45-.44-.458-1.169-.017-1.619.441-.45 1.169-.458 1.62-.017zM113.417 144.598c.45.441.458 1.169.017 1.62-.441.45-1.169.458-1.62.017-.45-.441-.458-1.169-.017-1.619.445-.458 1.17-.459 1.62-.018zM404.003 110.614c.451.441.459 1.17.018 1.62-.441.45-1.17.458-1.62.017-.45-.441-.458-1.169-.017-1.619.445-.458 1.162-.463 1.619-.018zM353.284 169.477c.45.441.458 1.169.017 1.619-.441.451-1.169.459-1.619.018-.451-.441-.459-1.169-.018-1.62.441-.45 1.17-.458 1.62-.017zM423.085 62.334c.45.44.458 1.169.017 1.62-.441.45-1.169.457-1.62.017-.45-.441-.458-1.17-.017-1.62.441-.45 1.163-.462 1.62-.017z"/>
        </g>
        <path fill="#809EED" d="M263.434 106.043l-59.222 19.266c-3.066.998-6.357-.684-7.353-3.758l-4.808-14.864c-.996-3.074.682-6.374 3.749-7.372l59.221-19.265c3.067-.998 6.358.684 7.353 3.758l4.812 14.864c.992 3.074-.686 6.373-3.752 7.371z"/>
        <path fill="#2E5DDC" d="M254.985 82.27l-57.857 18.824c-3.444 1.118-5.326 4.824-4.21 8.277l3.72 11.496c1.116 3.452 4.813 5.339 8.256 4.221l57.857-18.824c3.444-1.118 5.326-4.824 4.211-8.276l-3.721-11.496c-1.116-3.453-4.813-5.34-8.256-4.221z"/>
        <path fill="#2E5DDC" d="M192.3 107.463s-17.127 3.654-4.476 27.704l3.609-6.197s-4.211-9.178-1.108-12.188c3.102-3.013 4.13-2.663 4.13-2.663l-2.155-6.656z"/>
        <path fill="#fff" d="M275.33 123.836l13.373 58.791-60.622 17.653-15.802-38.733-11.924-38.64 62.553-21.934 12.422 22.863z"/>
        <path fill="#CACACA" d="M262.622 84.584s16.003-7.126 19.852 19.789l-6.55-2.893s-1.967-9.906-6.246-10.518c-4.274-.612-4.904.274-4.904.274l-2.152-6.652z"/>
        <path fill="#fff" d="M198.561 102.176c-1.859-5.738-2.087-11.882-.45-17.354 2.111-7.054 7.253-15.371 19.519-19.363 10.905-3.549 19.526.201 25.242 4.54 4.575 3.476 8.031 8.606 9.905 14.392l.418 1.296c1.942 6 2.087 12.421.232 18.075-2.167 6.619-7.007 14.147-17.696 17.628-10.752 3.5-19.566.338-25.643-3.634-5.33-3.484-9.428-9.081-11.527-15.56v-.02z"/>
        <path fill="#B7BFD1" d="M235.121 121.579c1.204-1.59 2.067-3.131 2.428-4.479.486-1.823.494-4.623-.979-5.665-2.023-1.429-4.985 1.766-9.513 2.752-7.429 1.618-15.866-3.396-20.397-9.267-4.933-6.39-4.985-13.471-5.005-15.982-.06-8.249 3.548-14.244 2.986-14.482-.506-.213-3.319 4.72-5.519 10.346-.863 2.2-1.529 4.253-2.055 6.108-.212 3.734.301 7.584 1.497 11.27l.004.016c2.1 6.478 6.194 12.076 11.528 15.56 5.956 3.891 14.549 7.005 25.025 3.823z"/>
        <path fill="#232C3F" d="M204.152 98.623c-1.2-3.702-1.176-7.722.205-11.359 1.782-4.688 5.848-10.3 15.063-13.294 8.192-2.664 14.461-.48 18.563 2.189 3.284 2.136 5.684 5.391 6.892 9.121l.269.837c1.252 3.871 1.16 8.076-.386 11.838-1.81 4.406-5.631 9.492-13.658 12.104-8.076 2.627-14.509.829-18.888-1.586-3.841-2.116-6.703-5.657-8.06-9.838v-.012z"/>
        <path fill="#fff" d="M261.961 100.015s-3.773-3.641-5.724-7.766l2.136 9.203 3.588-1.437z"/>
        <path fill="#B7BFD1" d="M252.604 91.485c.39 1.103.566 2.273.626 3.445.061 1.174-.036 2.357-.26 3.52-.241 1.163-.667 2.29-1.253 3.324-.582 1.038-1.417 1.919-2.344 2.611.675-.957 1.297-1.887 1.738-2.925.064-.125.117-.253.161-.386l.148-.391c.105-.257.205-.519.273-.792.072-.27.173-.531.237-.801l.185-.817c.228-1.094.357-2.217.437-3.348.068-1.13.084-2.273.052-3.44z"/>
        <path fill="#232C3F" d="M203.325 107.52c.654.961 1.341 1.875 2.055 2.752.726.869 1.485 1.702 2.312 2.451l.63.555c.213.181.445.334.662.507.213.181.446.334.683.479l.349.229c.112.08.233.157.357.217.963.58 2.015.966 3.119 1.344-1.156-.012-2.348-.237-3.428-.732-1.08-.487-2.087-1.151-2.962-1.952-.863-.808-1.638-1.71-2.272-2.696-.63-.981-1.172-2.032-1.505-3.154z"/>
        <path fill="#fff" d="M263.482 131.393s24.989-9.871 19.346-35.494c0 0-22.713-4.422-28.056-1.424 0 0-7.866 28.138 8.71 36.918z"/>
        <path fill="#fff" d="M282.828 95.9s4.864-29.185.778-33.849l-22.304-.632s-7.112 25.918-6.53 33.056c0 0 9.167-2.628 28.056 1.424z"/>
        <path fill="#B7BFD1" d="M283.606 62.051l-12.731-.362c-3.171 1.533-6.049 3.911-7.983 6.736-2.995 4.365-5.038 11.677-2.039 15.483 2.095 2.66 5.831 2.563 5.852 4.024.032 2.209-8.477 3.34-8.385 5.01.104 1.899 11.234 2.708 11.19 3.653-.04.825-8.485-.728-12.478 3.605-3.031 3.288-2.087 8.43-1.867 11.094 1.686 20.545-27.883 37.53-23.817 44.454 2.709 4.612 16.063-2.514 21.995 4.016 5.571 6.128-2.605 16.353 1.666 22.714 2.215 3.296 7.582 5.275 14.324 5.791l19.37-5.642-13.373-58.791-.225-.414c5.611-5.662 10.572-14.583 7.722-27.523 0 0 4.861-29.18.779-33.848zm-.915 33.82c.028.008.056.012.088.02-.024-.008-.052-.012-.088-.02zm-2.368-.507c.052.012.144.032.273.056l-.273-.056zm.401.084l.245.053-.245-.053zm.542.117c.02.004.044.008.068.016-.024-.008-.044-.012-.068-.016zm.47.1c.273.057.586.125.951.206-.197-.044-.562-.12-.951-.205z"/>
        <path fill="#fff" d="M202.229 118.863s24.676 16.047 13.056 42.314c0 0-25.334-.21-30.419-4.591.004 0-2.332-31.917 17.363-37.723z"/>
        <path fill="#fff" d="M190.798 196.904s-8.882-27.442-3.568-39.019l26.582 3.545s3.85 24.412 2.023 32.037c-.004 0-3.921 2.242-25.037 3.437zM219.42 73.97c-17.684 5.754-16.408 21.136-16.408 21.136l.478 1.477s-1.276-15.383 16.408-21.137c15.545-5.058 24.178 7.36 24.178 7.36l-.478-1.477c-.004 0-8.637-12.417-24.178-7.36z"/>
        <path fill="#232C3F" d="M203.012 95.102c-.144-4.695 1.389-9.472 4.267-13.274 1.428-1.911 3.206-3.545 5.161-4.901 1.963-1.356 4.13-2.382 6.362-3.187 2.227-.82 4.595-1.32 6.98-1.412 2.388-.077 4.796.265 7.039 1.066 2.252.785 4.339 1.98 6.214 3.412 1.862 1.453 3.548 3.115 5.025 4.937-1.626-1.685-3.36-3.275-5.282-4.587-1.907-1.328-3.982-2.406-6.173-3.11-2.196-.696-4.5-1.006-6.791-.885-2.292.104-4.56.6-6.723 1.4-2.18.764-4.279 1.762-6.193 3.042-.956.644-1.875 1.344-2.726 2.12-.838.785-1.653 1.61-2.364 2.515-1.433 1.807-2.596 3.843-3.399 6.024-.819 2.18-1.313 4.495-1.397 6.84zM247.029 90.91c.369 4.643-1.148 9.443-4.102 13.133-.738.918-1.541 1.795-2.44 2.563-.217.202-.446.391-.674.572-.233.185-.458.374-.695.551-.485.334-.951.704-1.457 1.002-1.994 1.263-4.154 2.241-6.377 2.986-2.232.736-4.568 1.207-6.928 1.295-2.356.085-4.736-.197-6.988-.889-2.255-.676-4.383-1.746-6.301-3.09-1.907-1.36-3.624-2.966-5.089-4.768 3.186 3.367 7.16 6.007 11.575 7.202 4.411 1.219 9.139.885 13.454-.583 2.175-.717 4.274-1.654 6.213-2.857 1.95-1.183 3.7-2.684 5.177-4.422 1.477-1.739 2.629-3.758 3.42-5.915.795-2.149 1.236-4.459 1.212-6.78z"/>
        <path fill="#fff" d="M238.52 81.81c.657-3.09-2.351-6.352-6.717-7.284-4.367-.933-8.439.817-9.096 3.908-.656 3.09 2.351 6.352 6.718 7.285 4.366.932 8.439-.818 9.095-3.909z"/>
        <path fill="#B7BFD1" d="M205.083 76.14c-.313-.202-.148-1.02.365-1.832.514-.813 1.184-1.308 1.497-1.107.313.201.149 1.018-.365 1.831-.514.81-1.184 1.309-1.497 1.107zM214.09 68.027c1.665-1.086 3.524-1.867 5.434-2.447 1.915-.575 3.909-.913 5.916-.998 1.004-.024 2.011-.008 3.014.097.996.124 1.995.265 2.963.539 1.942.5 3.796 1.328 5.45 2.423-1.826-.773-3.688-1.397-5.603-1.755-1.91-.362-3.853-.507-5.792-.426-1.938.064-3.869.354-5.775.78-1.899.447-3.777 1.027-5.607 1.787zM251.786 86.612c.229.181.365.395.485.608.113.217.193.447.245.68.052.234.076.475.064.72-.016.246-.056.496-.184.757-.233-.197-.373-.41-.49-.623-.112-.218-.193-.435-.241-.665-.048-.225-.072-.462-.06-.704.016-.241.056-.495.181-.773zM240.106 69.527c1.337.713 2.541 1.658 3.656 2.68 1.12 1.026 2.144 2.157 3.059 3.372.237.298.449.612.662.93.209.317.442.62.634.95.386.655.791 1.299 1.112 1.99.702 1.349 1.22 2.785 1.613 4.242-.734-1.328-1.412-2.652-2.211-3.907-.771-1.272-1.614-2.49-2.505-3.674-.879-1.195-1.846-2.317-2.841-3.42-1.008-1.099-2.055-2.157-3.179-3.163zM195.755 160.489c-.237.133-.458.177-.674.197-.217.016-.426 0-.63-.044-.205-.045-.402-.121-.586-.23-.185-.112-.366-.249-.522-.471.245-.132.469-.177.682-.197.213-.016.422 0 .618.044.201.045.39.121.578.23.185.113.369.245.534.471zM216.096 160.75c-1.425.419-2.886.673-4.355.854-1.469.189-2.946.273-4.427.298-.738.012-1.481-.012-2.219-.029-.739-.052-1.477-.068-2.216-.165-1.473-.136-2.938-.394-4.371-.756 1.485 0 2.946.068 4.411.072 1.461.02 2.922.028 4.383 0 1.461-.008 2.922-.056 4.383-.1l4.411-.174z"/>
        <path fill="#232C3F" d="M262.815 95.758c-.237.133-.458.178-.674.198-.217.016-.426 0-.63-.044-.205-.045-.402-.121-.586-.23-.185-.113-.366-.25-.522-.47.245-.134.469-.178.682-.198.213-.016.422 0 .618.044.201.044.39.12.578.23.189.108.369.245.534.47zM283.156 96.016c-1.425.419-2.886.672-4.355.853-1.469.19-2.946.274-4.427.298-.738.012-1.481-.012-2.219-.028-.739-.052-1.477-.068-2.216-.165-1.473-.137-2.938-.394-4.371-.757 1.485 0 2.946.069 4.411.073 1.461.02 2.922.028 4.383 0 1.461-.008 2.922-.057 4.383-.1l4.411-.174zM266.135 149.854c-.169.213-.357.334-.554.435-.193.096-.393.157-.602.193-.205.032-.417.036-.63.004-.217-.036-.434-.093-.658-.246.18-.213.369-.338.562-.439.192-.096.389-.156.59-.189.2-.032.409-.032.622-.004.216.041.433.097.67.246zM277.06 146.051c-1.345.572-2.706 1.107-4.07 1.634-1.361.539-2.746 1.022-4.122 1.573 1.465-.197 2.922-.499 4.338-.921.719-.185 1.413-.447 2.116-.672.694-.258 1.388-.515 2.071-.801.971-.406 1.93-.849 2.869-1.328l-.176-.772c-1.004.438-2.011.873-3.026 1.287z"/>
        <path fill="#B7BFD1" d="M202.23 118.863s5.414-3.662 10.528-1.574l.794 2.451-8.16 3.529-3.162-4.406z"/>
        <path fill="#232C3F" d="M206.359 118.879c1.999.796 4.134 1.09 6.249 1.251 1.06.085 2.124.109 3.187.101l1.594-.032 1.589-.097c.53-.024 1.06-.089 1.589-.141.53-.06 1.06-.096 1.586-.165l1.581-.221c.526-.069 1.052-.149 1.574-.254 1.043-.201 2.099-.346 3.138-.591 1.04-.229 2.091-.427 3.107-.724 1.023-.274 2.059-.503 3.054-.866l1.509-.498c.502-.165.984-.391 1.477-.576 1.991-.732 3.854-1.738 5.696-2.776 1.806-1.099 3.524-2.35 5.089-3.787 1.561-1.432 3.006-3.034 4.098-4.888-.839 1.995-2.175 3.754-3.644 5.351-1.497 1.581-3.183 2.986-4.997 4.197-3.649 2.406-7.755 4.048-11.961 5.122-4.21 1.026-8.501 1.746-12.844 1.847-2.167.081-4.343-.052-6.49-.358-1.071-.157-2.135-.386-3.179-.676-1.039-.31-2.071-.672-3.002-1.219z"/>
        <path fill="#fff" d="M208.957 101.078s.887 1.682 3.479 2.588l-3.479-2.588zM210.506 100.933s.887 1.682 3.48 2.588l-3.48-2.588zM213.223 101.154s.598 1.135 2.352 1.747l-2.352-1.747zM242.169 92.375s1.509-1.15 1.974-3.867l-1.974 3.867zM241.771 90.87s1.51-1.151 1.975-3.867l-1.975 3.867zM241.543 88.146s1.019-.777 1.332-2.616l-1.332 2.616z"/>
        <path fill="#B7BFD1" d="M202.715 97.066c-.742-3.465-.526-10.293 4.644-16.787 2.998-3.77 5.154-5.718 14.104-9.207.128-.048-12.161 2.527-17.821 11.472-5.35 8.45-.867 14.804-.927 14.522z"/>
        <path fill="#232C3F" d="M234.727 71.274c.345-.077.663-.057.976-.016.309.048.606.136.887.257.285.121.55.274.802.46.249.192.482.41.667.712-.354.028-.659-.02-.96-.085-.297-.069-.578-.161-.851-.278-.272-.117-.537-.253-.79-.422-.253-.17-.502-.355-.731-.628zM204.055 81.953c1.397-2.217 3.199-4.193 5.262-5.839 2.063-1.653 4.379-2.981 6.807-4.015 2.428-1.022 4.973-1.843 7.61-2.157 2.625-.338 5.318-.181 7.847.503-2.605-.274-5.202-.19-7.735.25-.634.1-1.264.237-1.886.39-.626.145-1.248.314-1.862.499-1.229.382-2.449.812-3.641 1.3-2.38.99-4.672 2.204-6.763 3.725-2.099 1.505-4.006 3.3-5.639 5.344zM215.189 114.027c-.345.076-.662.056-.975.016-.309-.049-.606-.137-.887-.258s-.55-.274-.803-.459c-.249-.193-.482-.41-.666-.712.353-.028.658.02.959.084.297.069.578.161.851.278.273.117.538.254.791.423.252.169.501.354.73.628zM245.857 103.347c-1.397 2.217-3.199 4.193-5.266 5.839-2.063 1.653-4.379 2.981-6.807 4.015-2.428 1.022-4.973 1.843-7.61 2.157-2.625.338-5.318.181-7.847-.503 2.605.274 5.202.189 7.735-.249.634-.101 1.264-.238 1.886-.391.626-.145 1.248-.314 1.862-.499 1.229-.382 2.449-.812 3.641-1.299 2.38-.99 4.672-2.205 6.763-3.726 2.107-1.505 4.01-3.3 5.643-5.344z"/>
        <path fill="#fff" d="M222.285 82.826c.346.39.703.76 1.092 1.094.189.177.389.334.582.503l.614.463c.835.588 1.73 1.083 2.677 1.437.944.366 1.939.6 2.954.676 1.016.116 2.039 0 3.071-.105-.249.068-.502.133-.755.193-.253.056-.505.14-.766.157-.518.052-1.044.125-1.57.093-.53.02-1.047-.085-1.573-.157-.261-.049-.51-.133-.767-.198-.257-.06-.505-.153-.75-.249-.984-.378-1.915-.905-2.726-1.577-.806-.668-1.537-1.44-2.083-2.33zM197.963 92.942c.064.631.136 1.255.232 1.879.089.623.185 1.247.301 1.863.229 1.235.486 2.466.807 3.681.305 1.22.674 2.419 1.084 3.61.104.298.2.595.313.889l.345.877c.209.596.494 1.159.718 1.751-.646-1.087-1.228-2.222-1.693-3.401-.261-.579-.442-1.191-.663-1.786-.18-.608-.377-1.215-.529-1.831-.313-1.231-.566-2.478-.715-3.742-.156-1.255-.253-2.523-.2-3.79z"/>
        <path fill="#B7BFD1" d="M223.698 179.895c-.425-1.77 18.555-8.051 18.335-8.699-.229-.664-20.229 5.738-21.164 3.464-.35-.841 2.324-1.935 2.291-4.164-.044-3.058-5.703-3.344-6.441-7.251-.771-4.084 3.054-6.422 2.548-11.09-.586-5.408-7.509-10.844-10.596-9.548-.642.269-1.212.873-1.698 1.746l5.306 17.194 11.736 28.766c10.633.189 22.629-10.18 21.795-12.365-1-2.624-21.73 3.52-22.112 1.947zM208.169 128.407c.522-.402.245-2.048-1.898-6.293-2.32-2.133-4.042-3.251-4.042-3.251-19.695 5.806-17.359 37.723-17.359 37.723.562.482 1.364.913 2.356 1.299-5.314 11.577 3.568 39.019 3.568 39.019 4.218-.238 7.742-.519 10.692-.817.687-2.169.791-4.302-.172-5.947-2.517-4.314-11.09-3.251-11.178-5.026-.085-1.65 7.309-2.796 7.216-4.402-.104-1.778-9.307-2.181-9.344-3.573-.044-1.638 12.688-2.39 12.9-5.11.169-2.133-7.622-2.334-11.422-8.595-1.028-1.694-1.461-4.221-2.32-9.275-1.084-6.365-1.598-9.576-.121-10.904 2.738-2.459 9.89 1.746 10.255.768.586-1.573-8.581-6.027-7.875-7.468.699-1.428 8.068.632 8.208.065.113-.459-4.981-.974-5.988-3.75-1.02-2.809 2.199-7.782 6.089-8.591 4.952-1.034 9.263 5.034 10.435 4.128z"/>
        <path fill="#fff" d="M204.987 120.718s-1.657-.918-4.326-.25l4.326.25zM203.771 121.692s-1.658-.918-4.327-.25l4.327.25zM201.379 123s-1.12-.62-2.922-.169l2.922.169zM282.029 65.89s-1.657-.918-4.326-.25l4.326.25zM280.813 66.864s-1.658-.918-4.327-.25l4.327.25zM278.421 68.172s-1.12-.62-2.922-.17l2.922.17z"/>
        <path fill="#B7BFD1" d="M192.63 144.562s-1.811-.559-4.287.64l4.287-.64zM191.634 145.766s-1.81-.56-4.287.64l4.287-.64zM189.559 147.533s-1.225-.379-2.894.434l2.894-.434z"/>
        <path fill="#2E5DDC" d="M259.521 23.326l-6.667-13.43s-1.28-2.657-3.371-1.582c-2.091 1.074-1.112 3.718-1.112 3.718l6.711 16.972s-1.353 2.157-.899 3.384c.453 1.227 5.302 7.93 7.377 8.172 2.075.242 9.223 2.785 16.227-1.219l-1.036-2.788s3.34-5.69 2.959-8.084c-.382-2.398-3.143-8.482-3.143-8.482l-.634-10.937s.301-3.287-2.34-3.573c-2.641-.286-2.485 3.211-2.485 3.211l.085 9.114-11.672 5.524z"/>
        <path fill="#232C3F" d="M260.264 34.782c.522.205 2.368-1.94 3.094-2.233.887-.358 1.036-1.171 1.879-2.108 1.031-1.143 1.561-.757 2.914-1.803 2.151-1.666 2.801-4.189 2.962-4.813.313-1.215.321-2.265.281-2.953 0 0 1.18-.571 2.308-.753 1.131-.18 1.047-.317 1.047-.317s-2.143-.491-4.756.217l-8.3 8.526-1.429 6.237z"/>
        <path fill="#2E5DDC" d="M265.286 18.26s-5.069-1.802-6.041 1.155c-.967 2.958.249 9.557 1.722 9.77 1.473.213 3.821-.282 3.36-2.901-.466-2.62-.43-4.591-.43-4.591s.666.044 1.036.434"/>
        <path fill="#232C3F" d="M265.285 18.265c-1.084-.302-2.212-.507-3.324-.435-.55.036-1.103.149-1.573.41-.478.254-.815.697-.975 1.204-.313 1.05-.345 2.189-.305 3.303.052 1.119.2 2.237.453 3.324.133.543.277 1.082.474 1.597.1.258.213.507.349.736.132.226.301.443.482.544.044.024.088.036.132.048l.201.024c.132.012.269.02.405.02.269 0 .542-.024.803-.076.522-.105 1.027-.334 1.36-.724.346-.383.482-.926.458-1.461-.008-.27-.06-.54-.1-.825-.04-.282-.081-.563-.113-.845-.136-1.13-.188-2.27-.16-3.404v-.044l.04.004c.381.052.771.189 1.031.475-.281-.266-.67-.367-1.035-.399l.044-.04c.028 1.13.165 2.253.325 3.368.04.277.088.555.141.833.048.273.112.559.132.857.044.583-.084 1.231-.486 1.714-.397.483-.987.744-1.561.869-.289.06-.586.093-.879.093-.148 0-.293-.005-.441-.016l-.221-.025c-.092-.016-.189-.044-.265-.088-.313-.177-.49-.439-.65-.692-.157-.258-.277-.523-.386-.793-.216-.54-.377-1.094-.501-1.654-.249-1.122-.386-2.261-.426-3.404-.024-1.143.008-2.31.39-3.424.2-.567.618-1.07 1.156-1.332.529-.274 1.119-.37 1.693-.382 1.148-.004 2.272.245 3.332.64z"/>
        <path fill="#2E5DDC" d="M274.724 19.806s-1.075-.511-4.732.217c0 0-.036 2.297.43 4.921.465 2.62-1.887 3.114-3.36 2.901-1.473-.213-2.689-6.812-1.722-9.77.968-2.957 5.844-1.21 5.844-1.21"/>
        <path fill="#232C3F" d="M274.723 19.806c-.381-.121-.782-.13-1.18-.133-.397 0-.79.024-1.188.068-.79.08-1.569.238-2.344.399l.097-.117c.016 1.13.108 2.265.256 3.384.073.567.177 1.106.261 1.686.085.583.036 1.231-.289 1.778-.325.544-.895.894-1.469 1.059-.578.169-1.18.205-1.774.132-.064 0-.176-.032-.261-.064-.08-.044-.168-.08-.228-.137-.141-.104-.241-.225-.333-.35-.185-.25-.318-.519-.438-.784-.229-.544-.397-1.099-.534-1.658-.269-1.123-.421-2.266-.477-3.416-.049-1.147-.004-2.314.317-3.44.152-.568.505-1.115 1.011-1.441.506-.326 1.096-.463 1.67-.495 1.156-.049 2.292.197 3.355.587-1.087-.31-2.227-.507-3.343-.402-.554.06-1.1.21-1.545.515-.446.31-.735.785-.863 1.316-.277 1.074-.277 2.217-.225 3.34.064 1.122.229 2.245.498 3.335.136.543.305 1.079.525 1.585.113.25.241.491.394.7.156.206.321.383.53.387.533.072 1.087.044 1.601-.105.51-.14.979-.434 1.248-.869.57-.905.089-2.084.028-3.215-.116-1.139-.176-2.281-.156-3.428v-.097l.096-.016c.787-.145 1.581-.25 2.38-.297.398-.025.799-.029 1.2-.013.402.02.807.06 1.18.206z"/>
        <path fill="#2E5DDC" d="M255.081 29.004s7.165-9.738 9.982-6.744c2.818 2.994.016 4.672-2.528 6 0 0-.855 4.18-2.268 6.522"/>
        <path fill="#232C3F" d="M255.081 29.004c1.016-1.449 2.127-2.833 3.355-4.116.615-.644 1.257-1.256 1.951-1.823.698-.555 1.453-1.067 2.32-1.384.429-.157.915-.242 1.401-.161.489.072.935.382 1.228.736.305.338.59.704.795 1.127.224.41.325.905.305 1.388-.036.495-.261.941-.534 1.32-.277.382-.634.676-.987.961-.727.54-1.514.966-2.308 1.36l.084-.112c-.265 1.134-.586 2.249-.967 3.343-.398 1.087-.839 2.173-1.465 3.147.542-1.022.935-2.108 1.264-3.21.333-1.103.618-2.222.839-3.345l.016-.076.072-.04c.771-.427 1.537-.85 2.228-1.372.666-.523 1.28-1.195 1.34-2 .04-.805-.441-1.566-1.003-2.197-.269-.326-.59-.543-.979-.612-.386-.068-.803-.008-1.201.133-.798.278-1.533.764-2.223 1.296-.694.527-1.353 1.114-1.983 1.726-1.248 1.223-2.432 2.539-3.548 3.91z"/>
        <path fill="#2E5DDC" d="M258.971 61.782l25.956.466-7.14-22.907-16.227 1.22s2.404 7.918-2.589 21.22z"/>
        <path fill="#232C3F" d="M274.683 122.996c-.959-.129-1.93-.129-2.894-.258-.959-.133-1.91-.326-2.845-.592-.932-.269-1.835-.636-2.706-1.098l-.048.072c.799.584 1.69 1.047 2.609 1.441.931.358 1.891.644 2.866.869.975.21 1.958.439 2.958.443.237 0 .473-.004.706-.012l-.004-.024-.224-.415c.108-.108.212-.221.321-.33-.245-.036-.49-.064-.739-.096zM254.547 16.108c.361-.209.702-.458 1.027-.724l-.136-.278c-.293.334-.594.656-.919.966l.028.036zM253.761 15.396l.016.04c.518-.16 1.051-.282 1.569-.511l-.156-.314c-.442.282-.952.503-1.429.785z"/>
        <path fill="#809EED" d="M248.719 12.446c-.405-1.195-.02-2.752.879-3.022.783-.237 1.59.612 1.698.729 1.008 1.086 1.397 3.243.687 3.967-.747.757-2.71-.048-3.264-1.674zM249.458 14.31s.446.583 1.144.502l-1.144-.503zM251.076 9.22c.225.1.421.249.606.41.185.16.345.354.482.56.128.213.236.442.289.692.052.245.044.503-.024.736-.025-.245-.061-.475-.137-.692-.084-.218-.185-.423-.309-.616-.253-.39-.566-.74-.907-1.09zM271.73 8.407c.052-1.103.863-2.246 1.682-2.177.714.06 1.095 1.006 1.147 1.138.474 1.208.105 3.09-.706 3.449-.851.37-2.191-.914-2.123-2.41zM271.738 10.157s.177.616.771.777l-.771-.777zM274.676 6.536c.153.153.269.334.369.523.101.189.173.398.217.612.04.217.048.438.012.656-.04.217-.132.426-.265.591.052-.209.096-.406.101-.607-.005-.202-.021-.399-.057-.6-.08-.395-.22-.777-.377-1.175zM254.812 32.291c.346 1.055 1.385 2.194 2.537 2.161 2.075-.06 4.331-3.931 3.432-6.707-.145-.447-.506-1.566-1.369-1.743-1.798-.366-5.551 3.396-4.6 6.29zM260.901 21.597c-.53.073-1.044-.286-1.1-.817-.08-.708.064-1.34.474-1.714.317-.294.79-.343 1.734-.435.959-.097 1.685-.17 1.946.221.257.387-.068 1.018-.136 1.155-.554 1.079-1.959 1.457-2.918 1.59zM255.844 18.587c.14.43-.269 1.102-.939 1.476-.891.495-1.702.745-2.212.608-.397-.109-.502-.503-.706-1.292-.209-.8-.366-1.404.108-1.875.466-.463 1.296-.551 1.477-.571 1.413-.153 2.015.877 2.272 1.654zM257.557 23.983c.161.415-.136 1.01-.69 1.3-.734.386-1.425.547-1.882.37-.358-.137-.482-.515-.735-1.272-.253-.768-.445-1.348-.072-1.746.365-.39 1.084-.399 1.24-.403 1.228-.016 1.846 1.002 2.139 1.75zM275.571 16.51c-.028.452-.658.926-1.416 1.023-1.008.129-1.859.06-2.28-.258-.329-.249-.281-.651-.181-1.46.104-.822.181-1.441.795-1.703.602-.258 1.409-.032 1.581.016 1.369.386 1.549 1.566 1.501 2.383zM266.953 20.092c-.522.073-1.019-.298-1.076-.82-.08-.71.065-1.341.474-1.715.317-.294.791-.343 1.734-.435.959-.097 1.686-.17 1.947.221.257.387-.069 1.018-.137 1.155-.558 1.087-1.983 1.465-2.942 1.594zM267.203 37.897c-1.854-1.682 1.188-10.856 6.695-11.983.241-.049 2.91-.564 3.893.784 1.517 2.08-1.481 7.907-6.101 10.305-.995.523-3.476 1.811-4.487.894z"/>
        <path fill="#B7BFD1" d="M260.07 66.083s7.156-3.42 14.722-4.02l-13.598-.245-1.124 4.265z"/>
        <path fill="#232C3F" d="M258.569 21.327l.185.386.165 2.885-.659.66c.004.004-.256-2.519.309-3.931z"/>
        <path fill="#809EED" d="M260.355 37.08c-.249-.141-.229-.503.036-.612.402-.16.847-.386 1.313-.692 1.28-.849 1.533-1.585 2.063-1.525.947.109 1.922 2.66 1.152 3.557-.614.72-2.425.47-4.564-.728zM258.971 61.782l2.569.044c.333-7.484 3.179-14.904 3.303-20.743l-3.075.399c.458 2.446 1.205 9.645-2.797 20.3zM192.556 108.252l-.253-.789s-17.126 3.654-4.475 27.704l.349-.6c-10.03-20.082 1.349-25.317 4.379-26.315z"/>
        <path fill="#232C3F" d="M191.115 115.604c-.542-.805-1.056-1.638-1.762-2.431.012.539.149 1.047.317 1.538.177.487.405.958.694 1.392.089.133.181.262.277.387.233-.218.454-.423.663-.6-.065-.097-.125-.193-.189-.286zM186.471 120.871c.47.265.972.41 1.477.519.43.084.867.117 1.309.117-.032-.298-.052-.596-.064-.886-.883.04-1.774.069-2.722.25zM189.919 124.774l-.077.048c-.822.519-1.665 1.006-2.48 1.69.538.004 1.048-.112 1.541-.269.446-.145.875-.342 1.281-.584-.093-.286-.181-.583-.265-.885zM275.687 12.346c-.526.092-1.056.165-1.598.205l-.004.044c.538.089 1.088.121 1.638.1h.096c-.429.25-.867.484-1.324.693l.012.04c.533-.104 1.059-.27 1.569-.475.024-.012.048-.02.076-.028l-.04-.672c-.14.028-.281.069-.425.093zM275.691 19.898l.004.044c.289.009.578 0 .867-.024l-.012-.229c-.285.08-.57.149-.859.21zM257.55 19.36c-.257.285-.522.57-.803.84l.028.037c.317-.186.614-.399.903-.624l-.269-.544c-.397.294-.847.524-1.332.689l.008.044c.281-.032.562-.085.839-.17.212-.072.421-.168.626-.273zM276.751 36.557c-1.983 1.444-5.194 3.408-8.372 3.738 0 0 5.33.495 9.404-.966l-1.032-2.772zM262.631 40.681c-.381-.04-.762-.137-1.144-.137.024.004.048.012.069.016 0 0 .092.306.204.894.285-.008.574-.053.859-.073.446-.028.891-.076 1.333-.14.441-.073.883-.141 1.316-.254l-.008-.089c-.441-.028-.883-.052-1.32-.1l-1.309-.117zM280.701 148.53c-.911.31-1.77.757-2.669 1.115s-1.803.7-2.722 1.018c-.911.334-1.834.632-2.757.938l.02.085c.959-.174 1.911-.383 2.862-.604.947-.234 1.89-.495 2.825-.777.936-.29 1.895-.531 2.774-.97.028-.012.056-.028.084-.044l-.193-.845c-.072.032-.148.06-.224.084zM281.223 57.158c.108.157.168.302.22.443.049.141.085.282.101.415.02.133.02.261.008.386-.016.12-.044.242-.117.342-.108-.16-.172-.31-.224-.45-.049-.141-.081-.278-.101-.407-.016-.129-.02-.258-.008-.378.02-.125.048-.242.121-.35zM277.393 43.795c.47.938.871 1.9 1.236 2.861.374.966.699 1.936.996 2.91.148.486.281.973.417 1.456.12.487.253.97.353 1.453.225.965.39 1.927.498 2.869-.289-.974-.542-1.936-.823-2.898-.277-.961-.554-1.919-.851-2.88-.285-.962-.594-1.92-.899-2.882l-.927-2.889zM256.811 138.398c-9.147 4.833-19.057 8.056-29.292 9.528l-5.173-15.982 3.323-1.589c7.417-3.549 15.28-6.068 23.376-7.485l2.592-.454 5.174 15.982z"/>
        <path fill="#B7BFD1" d="M232.741 144.981c-.177.205-.37.322-.566.419-.197.088-.402.145-.606.173-.205.028-.418.024-.63-.012-.213-.045-.43-.109-.651-.262.185-.209.382-.326.574-.422.197-.089.394-.145.598-.174.201-.024.41-.02.622.017.209.044.426.108.659.261zM251.926 138.205c-1.192.881-2.481 1.626-3.797 2.302-1.312.684-2.673 1.275-4.054 1.806-.69.266-1.393.499-2.095.741-.71.205-1.413.446-2.135.611-1.429.383-2.894.644-4.363.797 1.393-.511 2.789-.954 4.166-1.453 1.381-.486 2.753-.985 4.114-1.512 1.369-.512 2.725-1.063 4.082-1.61l4.082-1.682zM247.279 125.293c.196-.225.413-.358.638-.471.225-.109.453-.185.69-.229.237-.045.478-.061.727-.045.248.024.501.069.766.206-.205.225-.421.362-.642.475-.221.108-.45.181-.682.225-.233.044-.474.06-.719.04-.253-.024-.506-.068-.778-.201zM224.293 133.019c1.517-.902 3.098-1.67 4.704-2.382 1.605-.721 3.243-1.356 4.896-1.952.827-.294 1.666-.563 2.501-.833.847-.245 1.682-.515 2.533-.728 1.693-.463 3.419-.825 5.157-1.091-1.65.616-3.311 1.163-4.961 1.743-1.649.575-3.299 1.142-4.945 1.734-3.291 1.155-6.558 2.366-9.885 3.509z"/>
        <mask id="mefzzqk0jb" width="16" height="16" x="232" y="127" maskUnits="userSpaceOnUse">
            <ellipse fill="#C4C4C4" rx="7.546" ry="7.545" transform="matrix(0.949448 -0.313924 0.314078 0.949397 240.039 135.244)"/>
        </mask>
        <g fill-rule="evenodd" clip-rule="evenodd" mask="url(#mefzzqk0jb)">
            <path fill="#5A81EA" d="M240.039 135.244l6.356 3.196-9.553 3.158 3.197-6.354z"/>
            <path fill="#E14B51" d="M240.039 135.244l3.197-6.355-9.553 3.159 6.356 3.196z"/>
        </g>
    </g>
    <defs>
        <clipPath id="clip0">
            <path fill="#fff" d="M0 0H354.628V324.833H0z" transform="matrix(0.866084 0.499898 -0.500102 0.865966 153.376 -152.559)"/>
        </clipPath>
    </defs>
</svg>
